PathFileType	4	(X/Y/Z)	DARI_DATA/Captury_Subj4_bilateral_squat01.trc
DataRate	CameraRate	NumFrames	NumMarkers	Units	OrigDataRate	OrigDataStartFrame	OrigNumFrames
60	60	8	47	mm	60.00239944458008	114	226
Frame#	Time		LeftUpLeg_		RightUpLeg_		LeftLeg_		RightLeg_		LeftFoot_		RightFoot_		LeftToeBase_		RightToeBase_		Knee_Lateral_r		Knee_Lateral_l		Ankle_Lateral_r		Ankle_Lateral_l		LeftArm_		LeftForeArm_		LeftHand_		LeftHandEE		RightArm_		RightForeArm_		RightHand_		RightHandEE		Spine_		Spine1_		Spine2_		Spine3_		Spine4_		Spine5_		Spine_x		Spine_y		Spine_z		RASI		LASI		RIPS		LIPS		RTHI		LTHI		RTIB		LTIB		RTOE		LTOE		RHEE		LHEE		RHipAngles		LHipAngles		RKneeAngles		LKneeAngles		RAnkleAngles		LAnkleAngles
			X1	Y1	Z1	X2	Y2	Z2	X3	Y3	Z3	X4	Y4	Z4	X5	Y5	Z5	X6	Y6	Z6	X7	Y7	Z7	X8	Y8	Z8	X9	Y9	Z9	X10	Y10	Z10	X11	Y11	Z11	X12	Y12	Z12	X13	Y13	Z13	X14	Y14	Z14	X15	Y15	Z15	X16	Y16	Z16	X17	Y17	Z17	X18	Y18	Z18	X19	Y19	Z19	X20	Y20	Z20	X21	Y21	Z21	X22	Y22	Z22	X23	Y23	Z23	X24	Y24	Z24	X25	Y25	Z25	X26	Y26	Z26	X27	Y27	Z27	X28	Y28	Z28	X29	Y29	Z29	X30	Y30	Z30	X31	Y31	Z31	X32	Y32	Z32	X33	Y33	Z33	X34	Y34	Z34	X35	Y35	Z35	X36	Y36	Z36	X37	Y37	Z37	X38	Y38	Z38	X39	Y39	Z39	X40	Y40	Z40	X41	Y41	Z41	X42	Y42	Z42	X43	Y43	Z43	X44	Y44	Z44	X45	Y45	Z45	X46	Y46	Z46	X47	Y47	Z47

114	1.88333	-88.46707	517.09033	222.24622	78.82066	511.76163	214.26144	-198.67062	393.25873	-149.27103	130.70343	380.34552	-167.23840	-175.27234	74.97510	48.55708	118.94138	74.78110	50.66052	-193.00964	27.17514	-72.12366	142.38145	28.45406	-69.62108	177.15456	378.53223	-162.83417	-244.10555	393.56738	-138.50229	163.65215	73.10406	73.62552	-216.55367	75.45181	77.27781	-157.41969	947.08990	-43.22837	-223.56265	942.15997	-324.10315	-199.35921	962.61798	-556.84302	-187.26505	977.75848	-640.34631	114.40842	949.58051	-46.30881	172.60547	936.61823	-328.68250	147.35086	961.62610	-560.86560	142.22495	978.73615	-644.70636	-3.45596	603.13422	187.69884	-5.15023	679.97681	127.61735	-6.73765	747.31659	105.89697	-10.00293	837.50690	98.91059	-18.50080	954.79865	37.61067	-28923081178180147754616411384381964288.00000	0.00000	-28923121742999355057957259278884536320.00000	43.46643	601.63959	185.45920	-3.29850	643.68414	163.93663	-0.76800	626.84991	228.18715	130.76566	517.40277	98.06528	-150.76874	526.37054	111.50314	35.60026	591.83795	224.45743	-39.47558	594.22937	228.04086	167.89301	445.63287	44.87601	-203.10226	457.43390	66.36740	163.68036	234.05429	-78.07738	-222.19145	193.71495	-39.51816	151.63892	30.41227	-142.87180	-202.27391	26.62891	-145.39764	123.32661	10.57832	98.75145	-172.68272	10.34823	96.20816	-101.15147	7.54880	3.07123	-101.85457	9.59524	4.71936	-100.98363	0.06848	-0.01002	-98.30004	0.04719	-0.32009	-30.36028	2.12860	11.52317	-26.18987	-5.73854	2.80646
115	1.90000	-87.67220	511.35941	222.91797	79.61167	505.90604	214.93640	-198.81125	392.91766	-150.07495	130.41383	379.31052	-168.33475	-174.85941	75.02499	48.31473	118.42481	74.65891	50.82632	-192.95515	26.91069	-72.18772	142.16063	28.27047	-69.37354	176.87256	377.37692	-164.06389	-244.22992	393.23544	-139.23814	163.19666	72.86395	73.66305	-216.10239	75.53154	77.08998	-156.98213	940.55103	-44.83287	-222.66827	935.15582	-325.80624	-199.67845	955.14618	-558.70972	-187.98364	971.10364	-642.11774	114.88745	943.05865	-46.68951	173.32153	930.17090	-329.01773	148.22937	955.42432	-561.19189	143.38141	972.34717	-645.08722	-2.63342	597.12158	187.74388	-4.34018	673.66302	127.26398	-5.97848	740.92450	105.27457	-9.36622	831.09998	98.03848	-18.09536	948.26654	36.51084	-28923081178180147754616411384381964288.00000	0.00000	-28923121742999355057957259278884536320.00000	44.28789	595.59198	185.50513	-2.46450	637.50195	163.69481	0.07271	621.12256	228.06250	131.53445	510.70221	98.69241	-149.99344	519.87982	112.12489	36.42595	586.07025	224.57350	-38.64815	588.51764	228.15549	168.19301	441.82712	44.50885	-202.72574	454.19727	66.41403	163.23581	233.28285	-78.68585	-222.00423	193.55800	-39.91843	151.66737	30.24772	-142.59177	-202.31073	26.24359	-145.44908	122.48235	10.44614	98.93266	-172.48624	10.54240	96.17208	-102.27937	7.39679	3.02222	-103.04763	9.73283	4.64328	-101.95160	0.07090	-0.00804	-99.21156	0.01879	-0.34508	-30.60503	2.48532	11.52193	-26.14893	-5.73873	3.11560
116	1.91667	-87.19659	505.89798	224.98116	80.05306	500.33331	216.38310	-198.78683	393.38525	-149.70885	129.53174	379.31589	-168.85805	-174.73050	75.10147	48.04018	118.55869	74.91898	50.70972	-192.99744	26.93224	-72.41451	142.48071	28.60847	-69.48331	176.01326	377.44485	-164.81337	-244.20224	393.68851	-138.85800	163.42975	73.12061	73.35058	-215.97299	75.58391	76.81654	-156.63452	934.50513	-46.71008	-221.91916	929.01349	-327.77521	-199.90939	948.47980	-560.81775	-189.08734	963.59576	-644.49988	115.36749	936.78839	-47.78503	175.06204	924.41473	-329.87244	149.80176	949.71313	-562.02350	144.65520	967.02161	-645.82227	-2.30368	591.19183	188.34634	-4.18781	667.23743	127.13354	-5.79566	734.41199	104.64546	-8.98075	824.62793	96.95662	-17.53165	941.68481	35.03814	-28923081178180147754616411384381964288.00000	0.00000	-28923121742999355057957259278884536320.00000	44.60803	589.63104	185.93468	-2.23389	631.25635	163.77420	0.56815	615.71448	228.33827	131.49719	503.61633	99.87402	-149.97308	512.98126	114.34399	36.90692	580.61804	225.15546	-38.15182	583.11536	229.01413	168.06519	438.91013	44.68752	-202.46323	451.44580	67.66977	162.77229	233.39813	-79.18443	-221.91458	193.79700	-39.95322	152.07196	30.70581	-142.68719	-202.34590	26.31310	-145.67720	122.58683	10.68243	98.78677	-172.59924	10.65915	95.96312	-103.82605	7.40961	2.78824	-104.64848	9.60028	4.49339	-102.83937	0.00291	-0.01532	-99.97657	0.00232	-0.37109	-30.71834	2.80720	11.53408	-26.00542	-5.73956	3.38081
117	1.93333	-86.69923	500.45648	226.21396	80.56645	494.89117	217.93420	-198.98175	393.33798	-149.84778	129.44878	379.37857	-169.06906	-174.60608	75.15744	48.02811	118.27453	74.94394	50.43633	-193.02516	26.48772	-72.20204	142.43048	28.61107	-69.70131	175.93436	377.41870	-165.11401	-244.38470	393.61279	-138.94418	163.18991	73.03728	72.98027	-215.83020	75.69652	76.82980	-156.10306	928.60413	-48.73414	-221.06252	923.38422	-329.87976	-200.17392	941.93030	-563.10046	-190.12112	957.04791	-646.87817	116.07587	931.17932	-48.51006	176.41660	919.48175	-330.48883	151.57512	944.47375	-562.71826	147.09813	962.31824	-646.44305	-1.78074	585.48431	189.02426	-3.60681	661.18036	127.25170	-5.23699	728.28967	104.32055	-8.51653	818.53491	96.12203	-17.12469	935.36340	33.60963	-28923081178180147754616411384381964288.00000	0.00000	-28923121742999355057957259278884536320.00000	45.13547	583.92334	186.70189	-1.68685	625.34747	164.12683	1.01592	610.33295	228.81981	132.19955	497.24673	101.48627	-149.29770	506.61273	115.42053	37.37389	575.22681	225.98215	-37.69205	577.72443	229.69795	168.30757	435.87817	45.25737	-202.27525	448.44904	68.30344	162.55925	233.36214	-79.50800	-221.91853	193.78520	-39.98770	152.20940	30.75968	-142.87889	-202.41098	25.66196	-145.45795	122.06068	10.69209	98.51260	-172.55714	10.92397	96.23419	-105.09969	7.20692	2.72279	-105.91211	9.82093	4.44291	-103.65070	-0.00615	-0.03609	-100.80159	0.02238	-0.39387	-30.72659	3.07828	11.55736	-25.79551	-5.74107	3.56228
118	1.95000	-85.64285	496.26648	228.24905	81.60597	490.49194	219.77422	-198.78064	394.03622	-148.91531	129.68729	379.82864	-168.74342	-174.68765	75.22409	47.97620	118.00336	74.94543	50.11183	-193.35114	26.49678	-72.19291	142.13838	28.71314	-70.06872	176.17651	377.75409	-164.89098	-244.16980	394.36536	-137.95593	162.96436	72.85014	72.54785	-215.88086	75.80954	76.82117	-155.91695	923.32410	-50.60882	-220.04193	918.28650	-331.94925	-200.08809	936.05096	-565.31262	-191.32964	950.60114	-649.33575	116.33514	925.70551	-49.61019	177.92444	914.48914	-331.33844	153.88379	940.12207	-563.58228	149.24895	957.99548	-647.29230	-0.74906	580.66150	189.59048	-2.67253	655.74835	126.98060	-4.39188	722.73615	103.50422	-7.81996	812.99695	94.85660	-16.79447	929.69574	32.01492	-28923081178180147754616411384381964288.00000	0.00000	-28923121742999355057957259278884536320.00000	46.16243	579.04181	187.21338	-0.67937	620.13037	164.07256	2.12657	606.12805	228.98778	133.04210	491.00134	103.21642	-148.42680	500.71954	117.47904	38.46369	570.96436	226.63794	-36.59468	573.55585	230.44130	168.97897	433.55151	46.21712	-201.60580	446.58759	69.87317	162.51685	233.50401	-79.58284	-221.90950	194.18887	-39.63248	151.98723	30.98517	-143.23318	-202.80403	25.73918	-145.44092	121.55164	10.61378	98.09944	-172.75836	11.02790	96.23685	-106.72008	7.16425	2.68156	-107.49535	9.87629	4.32896	-104.25818	-0.05200	-0.07609	-101.32297	0.00744	-0.41194	-30.69305	3.26551	11.58082	-25.58111	-5.74318	3.67307
119	1.96667	-85.22240	492.52463	229.73500	82.02296	486.48593	221.37601	-198.86108	394.33014	-148.34999	129.67043	380.18555	-168.41122	-174.75377	75.27335	48.14319	118.42360	74.99005	50.03145	-193.53212	26.36509	-71.93449	142.35126	28.83984	-70.22210	176.16403	378.06995	-164.63455	-244.24356	394.69083	-137.36386	163.44466	72.85115	72.34259	-215.92691	75.89153	77.01614	-155.42119	918.25952	-52.30840	-218.90961	913.72662	-333.80176	-199.93896	930.70825	-567.30536	-191.86949	944.65137	-651.50024	116.93792	920.91486	-50.57796	179.34700	910.14893	-332.14334	156.13741	935.98706	-564.44897	151.12045	953.88708	-648.13129	-0.24066	576.33771	190.01804	-2.09171	650.80658	126.76215	-3.78498	717.58282	102.86331	-7.21618	807.75024	93.84290	-16.25553	924.20978	30.69233	-28923081178180147754616411384381964288.00000	0.00000	-28923121742999355057957259278884536320.00000	46.66986	574.64392	187.67343	-0.12809	615.47595	163.99600	2.64958	602.30481	229.08617	133.48679	485.45236	104.83391	-147.97629	495.61511	118.90156	38.95435	567.07996	227.19644	-36.10247	569.79004	230.94781	169.20236	431.49777	47.09352	-201.41602	444.74985	70.94286	162.66666	233.71471	-79.55267	-221.99072	194.36089	-39.29044	152.07109	31.22340	-143.40027	-203.02658	25.59191	-145.17696	122.03583	10.62263	97.96634	-172.84264	11.15422	96.50693	-108.08490	7.07637	2.52810	-108.79976	9.97719	4.29778	-104.82121	-0.00593	-0.12485	-101.83623	-0.02540	-0.42152	-30.65687	3.32792	11.60011	-25.42278	-5.74511	3.73202
120	1.98333	-84.76570	488.46344	230.61104	82.47545	482.38528	222.19792	-198.94984	394.16537	-148.30043	130.04871	379.95819	-168.63393	-174.90823	75.27576	48.47186	118.52348	74.98828	50.10890	-193.78157	26.11016	-71.48573	142.11749	28.60261	-70.11993	176.54214	377.79239	-164.88400	-244.32208	394.52563	-137.27219	163.56180	72.81500	72.38181	-216.06415	75.96825	77.36766	-154.81538	913.94507	-53.74151	-217.78108	909.55280	-335.35443	-199.76987	925.78107	-568.98755	-191.56474	939.63641	-653.18384	117.59119	916.58734	-51.19765	180.32292	906.12219	-332.70264	157.96037	932.08032	-565.07794	153.00146	950.04340	-648.75018	0.19616	572.08789	190.45650	-1.68149	646.32703	126.87672	-3.39266	713.04541	102.71111	-6.86967	803.21356	93.37149	-15.89463	919.50732	29.83786	-28923081178180147754616411384381964288.00000	0.00000	-28923121742999355057957259278884536320.00000	47.10549	570.38306	188.09671	0.29576	611.10278	164.24980	3.10565	598.23926	229.40005	133.88158	480.80112	105.63661	-147.57442	491.03021	119.79533	39.40956	563.00592	227.65883	-35.64537	565.73370	231.43448	169.61958	429.11133	47.36632	-201.20334	442.48389	71.46815	162.89694	233.52078	-79.66561	-222.12888	194.30962	-39.04359	151.66768	30.89629	-143.32329	-203.31261	25.26120	-144.72258	122.15772	10.69725	98.14450	-173.00485	11.26363	96.97740	-108.92599	7.07482	2.50052	-109.63003	10.04903	4.22214	-105.45141	-0.01736	-0.14993	-102.44566	0.02333	-0.41937	-30.61270	3.25275	11.61576	-25.34779	-5.74602	3.74845
121	2.00000	-84.52438	485.94608	231.79228	82.71079	479.52896	223.51244	-198.84958	394.25687	-147.71654	130.04324	380.28595	-168.16927	-175.17746	75.27130	48.94496	119.45987	74.96500	50.13101	-194.15569	26.17294	-71.02364	142.60136	28.66162	-70.21745	176.54285	378.14819	-164.48004	-244.22598	394.71667	-136.70912	164.53876	72.87112	72.32935	-216.32516	76.00798	77.85133	-154.55087	910.07172	-54.97667	-217.21182	905.54102	-336.65540	-199.23453	921.44958	-570.31311	-190.94058	935.59766	-654.45197	117.85764	912.74689	-51.88725	181.40614	902.41394	-333.21387	159.40134	928.48663	-565.61053	154.51900	946.19324	-649.34192	0.59111	569.09357	190.97794	-1.18263	642.89508	126.94565	-2.87430	709.45538	102.45768	-6.40130	799.54999	92.78902	-15.59784	915.60608	28.92655	-28923081178180147754616411384381964288.00000	0.00000	-28923121742999355057957259278884536320.00000	47.49876	567.29364	188.65553	0.76599	607.88660	164.44431	3.52415	595.56665	229.70175	134.16983	476.88254	106.99372	-147.27609	487.68219	120.92814	39.77213	560.26166	228.27448	-35.28012	563.14154	231.99033	169.75638	427.76166	48.17982	-201.04376	441.30908	72.32727	163.31813	233.77916	-79.47415	-222.26367	194.39581	-38.51953	151.80180	31.06688	-143.46201	-203.70030	25.45369	-144.26012	123.44497	10.66814	98.13095	-173.35905	11.24079	97.42949	-109.84976	7.01586	2.26962	-110.45116	10.09501	4.15823	-105.81974	0.05326	-0.13137	-102.78082	-0.04277	-0.40711	-30.53603	3.08796	11.62770	-25.34889	-5.74564	3.76004
